/* XPM */
static char * image_name[]={
"32 32 34 2",
"  	c #E5E5E5",
". 	c #E0E0E0",
"X 	c #828282",
"o 	c #3B3B3B",
"O 	c #2F2F64",
"+ 	c #8A8A8A",
"@ 	c #757575",
"# 	c #363636",
"$ 	c #787878",
"% 	c #C7C7C7",
"& 	c #9E9E9E",
"* 	c #919191",
"= 	c #474747",
"- 	c #A6A6A6",
"; 	c #A8A8A8",
": 	c #E3E3E3",
"> 	c #D6D6D6",
", 	c #D9D9D9",
"< 	c #8F8F8F",
"1 	c #878787",
"2 	c #2F4F4F",
"3 	c #DBDBDB",
"4 	c #4F4F4F",
"5 	c #383838",
"6 	c #B0B0B0",
"7 	c #A1A1A1",
"8 	c #616161",
"9 	c #636363",
"0 	c #424242",
"q 	c #6B6B6B",
"w 	c #696969",
"e 	c #C2C2C2",
"r 	c #666666",
"t 	c #4D4D4D",
"                                                                ",
"                                                                ",
"                                                                ",
"                                                                ",
"                                                                ",
"                                                                ",
"                                                                ",
"                                                                ",
"                  . X o O + .                                   ",
"                  @ # # # # $                                   ",
"                % # # # # # # %                                 ",
"                & # # # # # # &                                 ",
"                * # # # # # # *               = =               ",
"                - # # # # # # ;             : # # :             ",
"                > o # # # # o ,           : % # # % :           ",
"                  < # # # # *           = # # # # # # =         ",
"                  : 1 2 2 + :           = # # # # # # =         ",
"                                          : % # # % :           ",
"          3 + 4 5 4 6     6 4 5 4 + 3       : # # :             ",
"          + # # # # 5 & 7 5 # # # # +         = =               ",
"          8 # # # # # # # # # # # # 9                           ",
"          2 # # # # # # # # # # # # 0                           ",
"          q # # # # # # # # # # # # w                           ",
"          : e < r t 0 O O 0 t r * e :                           ",
"                                                                ",
"                                                                ",
"                                                                ",
"                                                                ",
"                                                                ",
"                                                                ",
"                                                                ",
"                                                                "
};
