/* XPM */
static char * image_name[]={
"32 32 38 2",
"  	c #E5E5E5",
". 	c #E8E8E8",
"X 	c #EBEBEB",
"o 	c #E0E0E0",
"O 	c #CFCFCF",
"+ 	c #91D2DE",
"@ 	c #B6E2CE",
"# 	c #DCDCDC",
"$ 	c #32BFC1",
"% 	c #00BFFF",
"& 	c #1E90FF",
"* 	c #7C98D3",
"= 	c #D4D4D4",
"- 	c #D9D9D9",
"; 	c #E3E3E3",
": 	c #DEDEDE",
"> 	c #CCCCCC",
", 	c #D6D6D6",
"< 	c #49D4F0",
"1 	c #9BEFF2",
"2 	c #E0FFFF",
"3 	c #B0E2FF",
"4 	c #FFFFFF",
"5 	c #F0F8FF",
"6 	c #72D5CD",
"7 	c #DBDBDB",
"8 	c #E6E6FA",
"9 	c #FCFCFC",
"0 	c #84BDD3",
"q 	c #87CEFA",
"w 	c #729FFF",
"e 	c #F8F8FF",
"r 	c #80B9D0",
"t 	c #81B6CB",
"y 	c #F5FFFA",
"u 	c #80B4C8",
"i 	c #9ABDCA",
"p 	c #91BACA",
"                                                                ",
"              . . X X X .                                       ",
"          . X o O + + @ # . X X X X X .                         ",
"        . o + $ % % % % & * + * * + + =   X .                   ",
"      . - * % % % % % % % % % % % % % % * + ; X                 ",
"    . : $ % % % % % % % % % % % % % % % % % $ > X               ",
"    . * % % % % % % % % % % % % % % % % % % % % + . .           ",
"  . , & % % % % % % % % % % % % % % % % % % % % % + X           ",
"  X + % % % % % % % % % < 1 2 2 2 3 < % % % % % % % @ X         ",
"  X * % % % % % % % % 3 4 4 4 4 4 4 4 5 6 % % % % % $ 7 .       ",
"  . * % % % % % % % 3 4 4 4 2 8 2 9 4 4 4 6 % % % % % * X       ",
"  X 0 % % % % % % $ 4 4 4 q % % % $ 2 4 4 2 % % % % % $ 7 .     ",
"  X @ % % % % % % < 4 4 4 & % % % % % 8 4 q % % % % % % + X     ",
"  . : $ % % % % % < 4 4 4 q % % % % % % % % % % % % % % * .     ",
"    . * % % % % % & 5 4 4 4 5 3 6 w % % % % % % % % % % *       ",
"      * % % % % % % 6 4 4 4 4 4 4 4 5 3 w % % % % % % % $ o .   ",
"      * % % % % % % % w 3 e 4 4 4 4 4 4 4 6 % % % % % % $ o .   ",
"      * % % % % % % % & % & < q 8 e 4 4 4 4 $ % % % % % $ ;     ",
"    . * % % % % % % & & % % % & % & q 4 4 4 6 % % % % % $ ;     ",
"    X + % % % % % $ 5 5 w & % % % & & 5 4 4 q & % % % % & @ X   ",
"    . = $ % % % & 6 4 4 5 $ & & & & w 4 4 4 6 & % % % % & r X   ",
"      . * % % % % $ 9 4 4 5 6 $ $ 6 5 4 4 5 $ % % % % % % * .   ",
"      X > & % % % & 6 4 4 4 4 4 4 4 4 4 4 < & % % % % % & * .   ",
"        . t & % % % & $ 3 5 4 4 4 4 y 3 $ & % % % % % % & * X   ",
"        . ; * & % % % & & & $ w w $ & & & % % % % % % % & + X   ",
"          . # * & % & & & & & & & & & % & & & & & & & & $ # .   ",
"            . o * & & & & & & & & & & & & & & & & & & & + X     ",
"              . . @ * & & & & & & & & & & & & & & & & u .       ",
"                  X ; @ * * $ $ $ $ $ & & & & & & $ i . .       ",
"                    . X X ; - = = 7 = p * $ $ * p , X .         ",
"                          . . . . . . X   ; ;   X .             ",
"                                          . .                   "
};
