/* XPM */
static char * image_name[]={
"32 32 10 2",
"  	c #B0E0E6",
". 	c #E6E6FA",
"X 	c #F0F8FF",
"o 	c #FFFFFF",
"O 	c #FCFCFC",
"+ 	c #DCDCDC",
"@ 	c #DEDEDE",
"# 	c #F8F8FF",
"$ 	c #91D2DE",
"% 	c #E0E0E0",
"                                                                ",
"                                                                ",
"                              . .                               ",
"                          X o O O o X                           ",
"                        O X +     @ # #                         ",
"                      X X   $     $   O X                       ",
"                      o   $         $ + o                       ",
"                    . O               @ o %                     ",
"                    . o o .         . o o %                     ",
"                    % o o X         X o o +                     ",
"                      o o .         X o O                       ",
"                      . O %         . O X                       ",
"                                    $ X .                       ",
"                              . . + . O                         ",
"                            . o o # .                           ",
"                              %                                 ",
"                                                                ",
"                                                                ",
"                                                                ",
"                                                                ",
"                                                                ",
"                                                                ",
"                                                                ",
"                                                                ",
"                                                                ",
"                                                                ",
"                                                                ",
"                                                                ",
"                                                                ",
"                                                                ",
"                                                                ",
"                                                                "
};
